<svg xmlns="http://www.w3.org/2000/svg" viewBox="0 0 274.47 274.47"><defs><style>.cls-1{fill:#282828;}.cls-2{fill:#f9004d;}</style></defs><title>Recurso 1Favicon </title><g id="Capa_2" data-name="Capa 2"><g id="Capa_1-2" data-name="Capa 1"><rect class="cls-1" width="274.47" height="274.47" rx="137.24"/><path class="cls-2" d="M199.84,116.65l-15.64-24L141,135.14l-34.39,35,20.64,31.54,34.48-35.07s0,0,0,0l1.36-1.35.28-.26,2.81-2.79,32.16-31.58A11.07,11.07,0,0,0,199.84,116.65ZM131,206.24l23.77,36.32,1.11-1.11a57.8,57.8,0,0,0,9.51-70.22ZM168.63,54.63l-14.8-22.72L76.18,108.23a11.2,11.2,0,0,0-1.5,14.13L103,165.55l34.38-35-12.21-18.65,41.75-41A12.91,12.91,0,0,0,168.63,54.63Z"/></g></g></svg>